<?xml version="1.0" encoding="UTF-8" standalone="no"?><svg xmlns:svg="http://www.w3.org/2000/svg" xmlns="http://www.w3.org/2000/svg" xmlns:xlink="http://www.w3.org/1999/xlink" version="1.0" width="64px" height="64px" viewBox="0 0 128 128" xml:space="preserve"><g><path d="M59.6 0h8v40h-8V0z" fill="#6dae1e"/><path d="M59.6 0h8v40h-8V0z" fill="#e2efd2" transform="rotate(30 64 64)"/><path d="M59.6 0h8v40h-8V0z" fill="#e2efd2" transform="rotate(60 64 64)"/><path d="M59.6 0h8v40h-8V0z" fill="#e2efd2" transform="rotate(90 64 64)"/><path d="M59.6 0h8v40h-8V0z" fill="#e2efd2" transform="rotate(120 64 64)"/><path d="M59.6 0h8v40h-8V0z" fill="#d3e7bb" transform="rotate(150 64 64)"/><path d="M59.6 0h8v40h-8V0z" fill="#c5dfa5" transform="rotate(180 64 64)"/><path d="M59.6 0h8v40h-8V0z" fill="#b6d68e" transform="rotate(210 64 64)"/><path d="M59.6 0h8v40h-8V0z" fill="#a7ce78" transform="rotate(240 64 64)"/><path d="M59.6 0h8v40h-8V0z" fill="#99c661" transform="rotate(270 64 64)"/><path d="M59.6 0h8v40h-8V0z" fill="#8abe4b" transform="rotate(300 64 64)"/><path d="M59.6 0h8v40h-8V0z" fill="#7bb634" transform="rotate(330 64 64)"/><animateTransform attributeName="transform" type="rotate" values="0 64 64;30 64 64;60 64 64;90 64 64;120 64 64;150 64 64;180 64 64;210 64 64;240 64 64;270 64 64;300 64 64;330 64 64" calcMode="discrete" dur="1080ms" repeatCount="indefinite"></animateTransform></g></svg>